<svg width="67" height="1328" viewBox="0 0 67 1328" fill="none" xmlns="http://www.w3.org/2000/svg">
<path d="M42.7105 0.0316741C42.8548 0.865966 43.0711 1.67056 43.1072 2.50476C43.2875 5.33516 43.0351 6.40749 41.6107 9.77288C40.6912 11.947 40.3126 14.1512 40.8895 16.833C41.2862 18.6506 41.4665 20.7363 41.3944 22.6727C41.3222 24.5496 40.9977 26.5752 40.4208 28.1836C39.97 29.4643 40.6371 30.9544 39.8979 31.9965C39.321 32.8302 38.7981 33.7534 38.2753 34.6765C38.1851 34.8254 38.113 35.0637 38.113 35.2424C38.2572 37.3578 38.0048 39.4728 38.3294 41.6479C38.7621 44.5976 39.0866 47.6366 38.1491 50.7343C36.9771 54.5169 36.5264 58.7472 36.9231 62.9482C37.0673 64.3783 37.518 65.5703 36.8509 66.8806C37.0132 69.6216 36.4903 72.4217 37.6082 75.0145C38.2392 76.4748 38.3654 78.3816 37.8606 80.3772C37.5541 81.5389 37.6442 83.0584 37.6983 84.3991C37.8065 86.6932 37.5721 88.8082 36.8329 90.7143C36.31 92.0843 36.3101 93.3653 36.6706 94.7658C36.7968 95.2426 36.7968 95.8386 36.8509 96.3749C37.0312 98.0136 36.6526 99.056 35.679 99.5617C35.4807 99.6807 35.2283 100.008 35.1922 100.306C35.1381 100.693 35.1922 101.319 35.3545 101.528C36.4002 103.018 36.6887 104.955 36.887 107.1C36.9591 107.845 37.518 108.501 37.8606 109.186C38.1671 109.782 38.6178 110.17 38.5277 111.153C38.3474 113.417 38.7621 115.473 39.339 117.499C39.5373 118.155 39.7176 118.9 39.7537 119.615C39.8258 120.985 39.7897 122.386 39.7537 123.756C39.7176 125.305 39.8799 126.735 39.0866 128.194C38.5637 129.147 38.5818 131.084 38.5277 132.574C38.4556 135.225 38.5097 137.877 38.5097 140.528C38.5097 140.766 38.5097 141.005 38.5097 141.213C38.5637 142.852 39.7717 144.134 39.3029 145.802C38.8522 147.351 38.9604 148.84 38.9424 150.39C38.9063 152.117 38.9424 153.845 38.9424 155.573C38.9424 156.944 38.9424 158.135 39.6455 159.298C40.0422 159.954 40.7994 161.444 39.8438 162.784C39.6996 162.992 39.6816 163.826 39.8078 164.095C40.8715 166.211 39.5193 169.07 40.6191 171.156C40.6191 173.688 40.8715 176.31 40.547 178.723C40.2225 181.076 40.2946 183.4 40.2044 185.724C40.1323 187.75 40.4568 189.597 41.0518 191.385C41.5206 192.786 41.7369 194.246 41.0518 195.645C40.6552 196.479 40.6011 197.462 40.6371 198.475C40.6371 198.922 40.7453 199.548 40.6371 199.846C39.8078 201.752 40.4929 203.033 41.16 204.494C41.8451 205.984 41.5927 207.771 41.3403 209.32C41.142 210.542 40.7093 211.614 40.6191 212.984C40.547 213.937 40.0241 214.89 39.6095 215.694C38.7981 217.332 38.7621 218.881 39.5734 220.431C39.7176 220.7 39.8799 220.908 40.0061 221.177C40.9076 223.084 40.9256 224.991 39.9881 226.807C39.4111 227.939 38.8162 229.398 38.0589 229.904C36.8149 230.678 36.869 232.048 36.9231 233.657C36.9952 235.713 36.9231 237.649 35.9134 239.197C35.7151 239.495 35.679 240.21 35.679 240.746C35.643 242.474 35.679 244.202 35.661 245.93C35.661 246.794 35.8773 247.748 35.3365 248.492C35.1922 248.701 35.1562 249.505 35.2824 249.773C36.0757 251.412 35.6069 253.289 35.661 255.047C35.6971 256.685 35.9495 258.413 35.2824 259.962C35.1562 260.26 35.1742 260.945 35.2824 261.303C36.0576 264.014 35.5168 266.904 35.6971 269.675C35.7872 270.926 35.5168 271.82 34.9398 272.653C34.5071 273.279 33.9121 273.784 33.9843 275.095C34.0744 276.317 33.8761 277.598 34.9398 277.986C35.3725 278.135 35.7692 278.791 35.661 279.774C35.643 280.012 35.6069 280.281 35.661 280.459C36.6706 283.678 35.7331 286.179 34.4891 288.413C34.0564 289.187 33.9482 289.902 33.9662 290.855C33.9662 291.094 33.9843 291.332 33.9662 291.541C33.7679 293.775 34.1826 295.742 35.066 297.351C35.8413 298.782 36.1478 300.331 36.0757 302.208C36.0216 303.817 36.2379 305.485 36.0216 307.034C35.6249 310.013 36.8149 311.474 37.8967 313.024C38.2753 313.56 39.0145 313.591 38.9604 314.663C38.9063 315.855 39.2128 317.047 38.69 318.268C37.5721 320.859 37.1935 323.838 37.3017 326.996C37.3017 327.502 37.0853 328.009 37.0493 328.545C36.905 330.034 36.3822 331.375 36.4543 333.013C36.5084 334.294 36.1839 335.575 36.0757 336.886C35.9675 338.197 36.1658 339.478 35.6971 340.788C35.3545 341.741 35.7331 342.874 36.3101 343.768C38.7621 347.554 38.4195 348.626 37.5 352.707C37.3197 353.511 37.2296 354.583 36.887 355C35.8954 356.161 35.9855 357.77 36.0937 359.319C36.3281 362.626 35.5709 365.784 35.6249 369.061C35.6249 369.746 35.3545 370.491 35.1201 371.116C34.0924 373.856 33.9843 374.273 33.9843 376.895C33.9843 377.938 33.822 378.742 33.3893 379.636C32.4878 381.482 32.5239 383.657 32.9385 385.921C33.0828 386.696 33.0287 387.619 32.9926 388.483C32.9926 388.9 32.6861 389.317 32.7402 389.675C33.0467 391.91 32.3075 393.339 31.388 394.649C30.7209 395.632 30.1981 396.823 29.531 397.835C28.4312 399.533 28.305 402.005 28.6656 404.3C29.0261 406.564 29.1343 408.977 30.0899 410.944C30.2702 411.302 30.1079 412.166 30.0358 412.762C29.9637 413.268 29.7473 413.715 29.6031 414.191C29.2966 415.264 29.1884 416.276 29.7654 417.26C30.8471 419.078 30.9012 421.045 30.0358 423.159C29.7473 423.844 29.6031 424.708 29.3867 425.482C28.8999 427.21 29.0442 429.266 29.9997 429.952C30.757 430.489 31.1356 431.025 31.0635 432.336C32.0912 433.945 31.9109 435.584 31.5683 437.729C31.1897 440.112 31.406 442.793 32.3075 445.088C32.7222 446.161 32.7583 447.829 33.2991 448.485C34.5071 450.005 34.3989 451.942 34.435 453.997C34.453 455.517 34.7054 457.007 35.3365 458.199C36.5264 460.434 35.9675 463.115 36.0757 465.647C36.0757 465.796 35.9134 466.035 35.8052 466.124C34.7415 467.196 34.7595 468.894 34.8316 470.652C34.9218 473.244 34.1465 475.686 34.3809 478.338C34.417 478.814 34.0384 479.559 33.7319 479.916C33.1008 480.66 33.0648 481.673 33.191 482.656C33.4434 484.653 33.6958 486.709 34.6694 488.199C34.9218 488.586 35.1742 489.004 35.4086 489.421C36.0216 490.554 36.2019 491.775 35.6971 493.145C35.4987 493.681 35.3365 494.277 35.1742 494.873C34.1826 498.417 34.1826 498.626 35.1742 502.142C35.7512 504.198 35.7692 506.164 35.4266 508.488C35.1021 510.692 34.3989 512.747 34.3989 515.101C34.3989 515.846 34.0564 516.858 33.6778 517.305C32.3796 518.823 32.5599 521.118 32.8664 522.876C33.0828 524.187 33.1549 525.051 32.7763 526.153C32.5599 526.778 32.3977 527.553 32.3616 528.268C32.2895 529.4 32.3075 530.561 32.3616 531.723C32.4337 533.958 32.1633 536.043 31.6404 538.158C31.2798 539.617 30.9914 541.226 31.0635 542.984C31.1176 544.354 30.7029 545.784 30.7209 547.184C30.7209 548.704 30.1079 549.954 30.0358 551.206C29.8916 554.334 28.4312 556.358 28.0165 559.188C27.7641 560.857 27.4936 562.435 26.6102 563.805C25.6546 565.264 25.889 567.499 26.9528 569.347C27.6739 570.598 27.9985 571.641 27.4396 573.428C26.8806 575.186 27.4576 577.182 27.8182 578.91C27.9985 579.775 28.1607 580.549 28.1607 581.413C28.1607 582.456 28.1607 583.35 28.7197 584.184C28.9901 584.602 29.1343 585.853 28.954 586.33C28.323 587.968 28.1427 589.755 28.0345 591.602C27.9985 592.108 27.7641 592.555 27.6018 593.032C27.5297 593.21 27.3134 593.389 27.3314 593.508C27.6379 596.16 26.8987 598.483 26.484 600.896C26.3578 601.611 26.3398 602.624 26.0513 602.981C24.8073 604.529 24.8794 607.062 24.2303 609.027C24.05 609.564 23.9418 610.308 23.9959 610.904C24.1402 612.483 23.6534 613.436 23.0404 614.419C22.5716 615.193 22.0668 615.848 21.7963 617.01C21.598 617.874 21.2915 618.439 21.6521 619.423C22.0668 620.526 22.0668 621.777 21.6521 622.909C21.2915 623.862 21.5079 624.487 21.8684 625.292C22.7699 627.349 23.1305 629.553 22.1028 631.876C21.58 633.068 21.3997 634.438 21.4718 635.928C21.5439 637.507 21.4538 638.966 20.7867 640.307C20.1737 641.557 20.1737 643.285 19.5066 644.655C19.146 645.4 19.4525 647.038 19.5066 648.26C19.5066 648.528 19.8311 648.826 19.7951 649.065C19.5246 651.478 20.1196 653.266 21.2554 654.637C21.3095 654.697 21.3997 654.816 21.3997 654.875C21.3095 657.02 22.2651 658.451 22.6798 660.209C23.1485 662.176 23.7435 663.874 24.4467 665.573C25.1859 667.391 25.5465 669.626 26.0693 671.712C26.6102 673.857 26.5201 676.121 26.466 678.326C26.4299 679.726 26.5922 681.037 27.0429 682.08C27.4756 683.093 27.4396 684.076 27.1691 684.881C26.8085 685.953 26.7905 686.757 27.3674 687.502C28.8278 689.38 28.6656 692.062 28.5394 694.624C28.5033 695.279 28.0706 695.994 27.71 696.44C26.6463 697.72 26.3037 699.389 26.466 701.504C26.5381 702.517 26.502 703.589 26.466 704.602C26.4119 706.36 26.466 707.879 27.4215 709.191C27.9804 709.966 28.341 711.307 28.5394 712.529C28.7557 713.959 28.4672 715.389 27.7641 716.461C26.8626 717.801 26.2857 719.409 26.502 721.465C26.5922 722.329 25.6907 722.686 26.2496 723.848C26.5741 724.504 26.4479 725.755 26.484 726.768C26.5201 727.691 26.484 728.615 26.484 729.538C26.484 730.76 26.3939 731.803 25.853 732.964C25.258 734.245 24.627 735.853 24.8073 737.73C24.8253 737.968 24.8613 738.236 24.8073 738.415C24.3746 739.845 23.2387 740.529 23.5091 742.764C23.7075 744.343 22.6618 745.355 22.1389 746.636C21.7242 747.648 21.58 749.048 21.4898 750.299C21.3817 751.908 21.4177 753.517 21.4898 755.126C21.5259 756.556 21.4357 757.837 20.6244 758.7C20.2097 759.147 20.2458 759.802 20.2097 760.487C20.1016 762.096 19.8672 762.424 18.9657 762.483C18.6953 762.482 18.4068 762.482 18.1363 762.482C16.6579 762.51 16.6038 762.6 16.4596 765.162C16.4596 765.4 16.5137 765.698 16.4596 765.847C15.45 768.379 15.1795 771.268 15.0172 774.188C14.9812 774.724 14.6927 775.439 14.8189 775.737C15.5221 777.406 15.1615 779.252 15.1795 781.01C15.1795 782.41 15.3418 783.781 15.9187 784.645C16.5498 785.599 16.4055 786.672 16.4776 787.774C16.5498 788.966 16.2433 790.008 15.8286 790.783C15.3057 791.765 14.6386 792.599 13.9535 793.224C12.0424 794.98 10.9606 797.542 11.0508 801.206C11.1229 803.589 10.8524 805.615 9.71658 807.223C9.50022 807.521 9.41007 808.176 9.37401 808.683C9.31993 809.725 9.26584 810.768 9.37401 811.781C9.55431 813.539 9.13963 815.117 8.90525 816.666C8.3283 820.241 8.29224 820.896 9.7346 823.519C10.0952 824.175 10.2034 824.801 10.2214 825.635C10.2214 827.661 10.2214 829.568 9.41007 831.354C9.06751 832.099 8.88722 833.29 8.92328 834.482C8.97737 837.164 8.23816 839.755 8.52663 842.496C8.61678 843.36 8.34633 844.254 8.85116 845.088C9.01343 845.356 8.8151 846.31 8.70692 846.905C8.61678 847.412 8.45451 847.888 8.27422 848.335C6.95806 851.492 6.54339 855.186 6.94003 858.761C7.35471 862.396 7.17442 865.971 7.26457 869.576C7.2826 870.768 7.26457 871.87 7.96772 872.556C8.5086 873.122 8.56269 873.956 8.54466 874.94C8.5086 876.906 8.45451 878.872 8.54466 880.809C8.65284 882.954 8.70693 885.218 9.86081 886.828C10.0411 887.066 10.0772 887.573 10.2034 887.96C10.4918 888.914 10.6902 890.016 11.0868 890.791C11.6097 891.834 11.6457 892.877 11.2491 893.86C10.6361 895.349 10.6 896.958 10.6181 898.626C10.6181 899.788 10.6721 900.92 10.6181 902.082C10.564 903.303 10.6541 904.376 11.3212 905.062C11.8801 905.628 11.8621 906.492 11.8981 907.445C11.9703 909.322 12.2227 911.17 12.2768 913.047C12.3489 915.013 12.3309 916.979 12.2768 918.916C12.2587 919.72 12.5652 920.108 12.7636 920.674C13.3044 922.223 13.8634 923.922 12.9619 925.59C12.1866 927.019 12.2587 928.687 12.2948 930.326C12.3669 932.769 12.1325 934.914 10.9246 936.701C10.4918 937.326 10.0772 938.398 10.1853 939.62C10.3476 941.586 9.86082 943.641 10.564 945.578C10.7803 946.174 10.564 947.157 10.6 947.962C10.7082 949.839 10.3837 951.06 9.28387 952.042C7.93166 953.263 7.12033 955.228 7.22851 958.059C7.31866 960.71 7.2826 963.362 7.22851 966.013C7.22851 966.966 7.33669 967.771 7.66122 968.486C9.21176 971.794 8.56269 974.892 7.26457 977.781C6.77777 978.853 6.68763 979.806 6.95807 980.849C7.57107 983.293 7.06625 985.795 7.24654 988.268C6.29098 989.697 6.94004 991.217 7.33669 992.468C7.60713 993.303 7.53501 993.631 7.35472 994.465C7.10231 995.686 7.12034 997.205 7.2826 998.516C7.40881 999.619 7.87757 1000.63 8.23816 1001.65C8.43649 1002.21 8.92328 1002.78 8.88723 1003.25C8.72496 1005.1 9.22979 1006.29 10.0051 1007.37C10.4197 1007.96 9.89688 1009.27 10.6 1009.72C10.4738 1012.22 11.0327 1014.93 9.86082 1017.17C9.75264 1017.38 9.80673 1017.88 9.69855 1018.06C9.01343 1019.16 9.24782 1020.12 9.87885 1020.92C10.4738 1021.7 10.6902 1022.65 10.6181 1023.9C10.5459 1025.15 10.564 1026.43 10.6181 1027.72C10.6541 1029.03 10.3116 1030.07 9.84279 1030.99C8.97737 1032.72 8.8692 1032.69 8.94131 1034.12C9.01343 1035.52 8.6889 1036.44 8.11196 1037.4C7.30063 1038.74 6.61551 1040.25 5.8763 1041.71C5.46162 1042.55 5.37148 1044.16 5.8763 1044.72C7.31866 1046.33 7.30063 1048.63 7.26457 1051.07C7.21048 1053.6 7.26457 1056.13 7.26457 1058.67C7.26457 1059.89 7.40881 1061.2 6.59748 1062.03C6.47128 1062.15 6.54339 1062.84 6.43522 1062.9C5.7501 1063.4 6.27295 1064.68 5.84024 1065.28C5.44359 1065.85 4.9568 1066.23 4.56015 1066.77C4.30774 1067.13 3.94715 1067.66 3.96518 1068.05C4.09138 1070.43 3.0637 1072.07 2.55888 1074.04C2.32449 1074.93 2.09011 1075.94 2.28843 1076.54C2.97355 1078.5 2.64902 1080.53 2.63099 1082.53C2.61296 1084.49 3.0637 1086.55 2.30646 1088.51C2.05405 1089.17 2.01799 1090.63 2.30646 1091.17C2.84735 1092.24 2.57691 1093.34 2.68508 1094.41C2.81129 1095.66 2.52282 1096.56 1.94587 1097.39C1.51317 1098.02 0.972281 1098.52 0.972281 1099.83C0.972281 1101.15 1.18864 1102.34 1.60331 1103.2C2.05405 1104.18 2.37858 1104.99 2.27041 1106.24C2.05405 1108.5 2.79326 1110.26 3.49641 1111.96C3.94715 1113.06 4.37986 1114.11 4.39789 1115.54C4.39789 1116.1 4.68636 1116.82 4.99286 1117.18C5.93039 1118.34 6.18281 1119.86 6.0566 1121.68C6.0566 1121.91 6.0566 1122.15 6.0566 1122.36C5.85828 1124.33 6.29098 1125.76 7.17443 1127.16C8.61679 1129.39 9.12161 1132.49 9.39206 1135.62C9.44614 1136.31 9.37403 1137.02 9.39206 1137.71C9.51826 1139.85 9.15767 1141.61 8.20211 1143.13C7.57108 1144.11 7.04822 1145.3 6.57946 1146.49C5.94842 1148.04 5.73207 1149.8 6.48931 1151.35C7.17443 1152.75 7.57108 1154.27 7.75137 1156.03C7.84152 1156.92 8.29226 1157.7 8.54467 1158.59C9.15767 1160.71 9.24782 1162.82 8.54467 1164.91C8.23817 1165.8 8.05788 1166.72 8.12999 1167.74C8.29226 1170.12 7.60714 1172 6.77778 1173.72C5.87631 1175.63 5.67798 1177.68 6.65158 1179.35C7.6432 1181.08 8.12999 1182.96 8.14802 1185.28C8.14802 1185.76 8.38241 1186.27 8.54467 1186.71C8.68891 1187.16 9.37403 1190.2 9.37403 1190.65C9.37403 1191.93 9.33797 1193.18 9.37403 1194.46C9.42812 1195.89 9.22979 1197.26 9.71659 1198.72C10.0051 1199.62 9.77068 1201.16 9.5363 1202.3C9.22979 1203.79 9.26585 1204.95 10.0592 1205.84C10.9967 1206.89 11.1049 1208.35 11.0508 1210.01C10.9967 1211.74 10.9967 1213.47 11.0508 1215.2C11.1049 1216.63 10.7443 1218.12 11.4294 1219.43C11.5736 1219.7 11.4835 1220.32 11.4294 1220.77C11.3032 1222.41 10.8705 1224.16 11.0868 1225.62C11.3212 1227.17 11.3933 1228.66 11.4294 1230.21C11.4655 1231.7 11.159 1233.1 10.6722 1234.17C9.8428 1236.08 9.75265 1235.96 9.75265 1237.66C9.75265 1238.94 9.75265 1240.19 9.75265 1241.47C9.75265 1243.23 9.64447 1244.96 10.5459 1246.48C11.213 1247.58 11.1409 1249.19 10.7443 1250.8C9.93295 1254.16 9.89689 1254.28 10.6902 1257.29C10.9246 1258.19 10.9787 1258.99 10.9967 1259.86C11.0327 1261.58 10.9426 1263.31 11.0147 1265.04C11.0688 1266.56 11.2671 1268.08 11.4294 1269.6C11.4655 1270.02 11.5195 1270.49 11.6818 1270.79C12.5112 1272.28 12.5292 1274.25 12.6193 1276C12.7275 1277.85 12.9258 1279.28 13.9896 1280.24C14.5124 1280.71 14.873 1281.55 14.7829 1282.8C14.6747 1284.29 14.7829 1285.78 14.7468 1287.3C14.7468 1288.01 14.7468 1288.85 15.1976 1289.03C15.9728 1289.32 16.0449 1290.13 16.0269 1291.2C15.9728 1293.41 16.3875 1295.25 17.3611 1296.86C17.8479 1297.67 18.1544 1298.8 18.1364 1300.14C18.1003 1301.33 17.92 1302.58 18.497 1303.69C18.6232 1303.92 18.3708 1304.7 18.3347 1305.23C18.2445 1306.66 18.1183 1308.12 18.1364 1309.58C18.1364 1310 18.5691 1310.78 18.7674 1310.75C19.4706 1310.63 19.3263 1311.55 19.4525 1312.06C19.9033 1313.61 19.8311 1315.6 20.9309 1316.62C21.0571 1316.74 21.0391 1317.48 21.0211 1317.9C20.8228 1321.26 21.9045 1323.95 22.7159 1326.78C22.806 1327.08 23.0764 1327.37 23.2748 1327.4C23.8337 1327.49 24.3926 1327.4 24.9515 1327.41C52.1761 1327.43 39.4186 1327.45 66.6432 1327.47L66.6431 0.0817159L42.7105 0.0316741Z" fill="#FFF8EC"/></svg>
